<?xml version="1.0" encoding="UTF-8"?>
<svg width="191px" height="272px" viewBox="0 0 191 272" version="1.1" xmlns="http://www.w3.org/2000/svg" xmlns:xlink="http://www.w3.org/1999/xlink">
    <!-- Generator: Sketch 50.2 (55047) - http://www.bohemiancoding.com/sketch -->
    <title>Group 2</title>
    <desc>Created with Sketch.</desc>
    <defs></defs>
    <g id="Typography-Hierarchy" stroke="none" stroke-width="1" fill="none" fill-rule="evenodd">
        <g id="Artboard-2" transform="translate(-3.000000, 0.000000)">
            <g id="Group-2">
                <g id="Oida-Logo-Copy" transform="translate(30.000000, 0.000000)" fill="#EBB400" fill-rule="nonzero">
                    <path d="M41.8220107,0.399530023 C34.9518561,1.0003048 28.1459222,2.07163716 21.4844849,3.90059682 C19.0747493,4.56204097 16.6679329,5.20868771 14.2508995,5.85681419 C11.5025458,6.59668461 8.72937946,7.2670072 6,8.07642543 C6,8.07642543 6,8.07642543 6,8.07642543 C8.65348228,7.38982569 11.3492918,6.85267977 14.0275866,6.28297955 C16.5312206,5.75323233 19.0392333,5.23729603 21.5516247,4.73517065 C23.193631,4.4037087 24.8619095,4.1610312 26.5141328,3.93167138 C29.9805907,3.46999224 33.4674824,3.36789012 36.9616719,3.46259353 C40.4091555,3.55581721 43.8580986,3.74818351 47.2807697,4.19506524 C53.1008735,5.02193828 58.7954363,6.58693717 64.230654,8.85328937 C68.6993852,10.8088306 72.9248499,13.2922423 76.8193694,16.2519935 C80.8155424,19.4995393 84.4337716,23.1980767 87.6040672,27.2760627 C91.1266721,31.9841651 94.1133844,37.0806467 96.5073905,42.4685617 C97.8486288,45.9125542 98.8223523,49.4922196 99.4119173,53.1463715 C99.8057464,56.8975905 99.8091709,60.6804093 99.4221343,64.4323548 C98.8637429,68.0872467 97.9409516,71.6752555 96.6679423,75.1412392 C95.3550506,78.0170659 93.7765466,80.7604148 91.9535596,83.3345641 C90.2149072,85.4378608 88.2915907,87.3768726 86.2072671,89.1277495 C84.9059953,90.0808303 83.5403871,90.9402022 82.1204957,91.699539 L80.1325733,92.750155 C79.8698523,92.8892507 79.6071313,93.0461032 79.338572,93.1822393 L78.0162096,93.7430611 C77.4163299,93.9975765 76.7857995,94.1869834 76.1698646,94.3985863 C75.2328264,94.7167306 74.2855711,95.0097193 73.3295585,95.2657144 C71.9673014,95.6326901 70.5894756,95.9404762 69.1960812,96.1890727 C66.5559667,96.4231473 63.9003425,96.413737 61.2619065,96.1609576 C58.5838683,95.6972735 55.9516901,94.9936108 53.3963311,94.0582459 C51.2651029,93.0223388 49.2216249,91.8102823 47.2866079,90.4343606 C44.8306246,88.3223589 42.562944,85.9951016 40.5098652,83.4795787 C39.4881724,82.033872 38.5263215,80.5452527 37.6097171,79.0285183 C36.6451513,77.4479143 35.7614353,75.8180451 34.9620731,74.1453736 C34.5971828,73.1352039 34.2794849,72.1082637 34.0089796,71.0645532 C33.7929645,70.2225807 33.6280341,69.3746892 33.4543463,68.5238382 C33.3463388,67.994091 33.2543864,67.4643438 33.1624341,66.9331168 C32.8705218,63.8256611 32.6866171,60.7182053 32.9887463,57.5974319 C33.251636,55.9743824 33.6695777,54.381096 34.2366711,52.8400652 C34.8075001,51.6206862 35.4660818,50.4455569 36.2070788,49.324201 C36.6245133,48.679034 37.0930324,48.07382 37.5586324,47.4641668 L37.2112569,47.9199269 C37.6491252,47.3443077 38.1541334,46.8145605 38.6314099,46.2714957 C39.3480147,45.4720005 40.129156,44.7345053 40.9667079,44.0666818 C41.6575999,43.5270726 42.4026899,43.0628267 43.1896196,42.6816444 C43.5515483,42.5415702 43.9252691,42.4350853 44.3061839,42.3635001 C44.9005324,42.2956775 45.5007224,42.2996513 46.0941464,42.3753381 C46.8274836,42.5135187 47.5491947,42.7089327 48.2528374,42.9598357 C48.2528374,42.9598357 48.2528374,42.9598357 48.2528374,42.9598357 C47.2821184,42.3009695 46.2501609,41.739943 45.1717037,41.2847691 L45.2621965,41.3232423 C44.8987658,41.1678695 44.5324159,41.0154562 44.1646065,40.8793201 C43.3808221,40.5922504 42.4627581,40.6203654 41.6454038,40.6869538 C40.2582808,40.819774 38.8917281,41.1198133 37.5746876,41.5807172 C36.2318913,42.0349977 34.8978524,42.5114742 33.6003024,43.0915326 C32.3625945,43.6464354 31.1394823,44.2116964 29.91637,44.8035928 C28.6862217,45.4095942 27.5030363,46.1090396 26.376934,46.8959463 C24.6271843,48.0944083 22.9986563,49.4654041 21.5151356,50.9889094 C19.4936434,53.0857022 17.8341223,55.490281 16.27823,57.9436913 C16.0009134,58.3876135 15.7630049,58.8433737 15.5148795,59.2991339 C15.2667541,59.7548941 14.9981948,60.2106542 14.7850989,60.685651 C13.3255377,63.8419382 11.9083038,67.0796112 10.9712655,70.4401026 C10.7409427,71.2450624 10.5538442,72.0620923 10.410794,72.8875939 C10.0823927,74.8334531 9.78610177,76.8089071 9.68101337,78.7843611 C9.52046163,81.7320048 10.0094146,84.6914865 10.5012868,87.5843798 C10.8258045,89.3712766 11.3305434,91.1196442 12.0075539,92.8019459 C13.0963866,95.5927371 14.2202487,98.3938865 15.7630049,100.965676 C16.2008733,101.68483 16.6679329,102.378829 17.1612646,103.05803 C18.4208659,104.795245 19.7125776,106.528022 21.1137563,108.155737 C22.2892724,109.493155 23.5669395,110.734556 24.9348876,111.868406 C26.5404049,113.223849 28.2086833,114.499386 29.8973957,115.749767 C30.6359336,116.297271 31.396365,116.812221 32.1699325,117.306454 C33.6707205,118.263006 35.2402739,119.103893 36.8653409,119.822013 C39.6385072,121.048719 42.3678866,122.250268 45.2782517,123.065605 C48.1886167,123.880943 51.2157467,124.234601 54.2136854,124.626732 C57.8379554,125.102139 61.5061622,125.123509 65.1355819,124.690361 C68.1014103,124.333743 71.0526431,123.959369 73.9425742,123.191383 C75.6906565,122.716284 77.407969,122.131649 79.0846084,121.44085 C82.4138675,120.083928 85.6964207,118.651538 88.8257199,116.87141 C89.88974,116.266196 90.9785727,115.687618 92.0163207,115.039491 C93.2233778,114.278904 94.4348136,113.525716 95.6360325,112.756251 C97.1452188,111.78998 98.60478,110.749722 100.030771,109.663593 C102.220113,107.994445 104.394859,106.301622 106.397377,104.401634 C107.669352,103.186383 108.862364,101.888895 109.968924,100.517315 C111.720397,98.3642917 113.397433,96.14764 114.83656,93.7696964 C115.751308,92.2421257 116.553336,90.6480406 117.236079,89.0004918 C118.319073,86.418344 119.381634,83.8968657 120.123091,81.1963386 C120.871846,78.4617776 121.213383,75.7050204 121.582652,72.8920331 C121.828638,71.0770825 121.966573,69.2487583 121.995708,67.4169921 C122.020078,65.530263 121.940652,63.6436241 121.757799,61.7658618 C121.502782,59.0449638 121.100308,56.3403499 120.552202,53.6642808 C119.642895,49.3094036 118.03008,45.1661293 116.224603,41.1219976 C114.748794,37.8628975 112.982184,34.7474087 110.94683,31.8144278 C108.589318,28.3620702 105.971808,25.0998599 103.117743,22.0570168 C100.318305,19.0842174 97.2036012,16.4931913 93.9823496,14.0057469 C91.2138247,11.8752147 88.2858507,9.96649771 85.2249824,8.29690682 C81.8124976,6.4462033 78.2592649,4.87561435 74.5993768,3.60020943 C71.2275032,2.43898066 67.7591417,1.58862688 64.2364922,1.05949443 C60.4525317,0.460951005 56.6338906,0.114933923 52.8052088,0.0236758532 C52.1289455,0.00789195108 51.4531686,0 50.7778783,0 C47.788697,0 44.8034078,0.133176674 41.8220107,0.399530023 Z" id="Shape"></path>
                    <path d="M42.4796755,159.98742 C40.4675491,159.98742 38.4786507,159.925919 36.5695986,159.804313 C32.524073,159.53535 28.4998109,159.024648 24.5200683,158.27516 C21.7986931,157.74761 19.1223523,157.023859 16.5136635,156.110024 C12.9902647,154.90655 10.0940222,153.610823 7.65798463,152.151558 C6.51981213,151.469449 5.3206661,150.717452 4.26669513,149.838259 C3.78471392,149.434305 3.39564475,149.082069 3.03270709,148.73123 C2.90204953,148.604034 2.77719898,148.467053 2.66105892,148.337061 C2.49221881,148.142732 2.31087743,147.958797 2.11810418,147.786342 C1.91372451,147.663681 1.69965967,147.556656 1.47788215,147.466254 C1.05106746,147.313898 0.606831768,147.169928 0.185824082,147.028754 L0.056618275,146.986821 L0,146.967252 L0.0537147737,146.929513 C0.77379835,146.567728 1.52347722,146.263393 2.29521776,146.019569 C2.86531701,145.877916 3.44914323,145.793598 4.03731853,145.767971 C4.24491887,145.751198 4.43945346,145.735823 4.63253629,145.716254 C7.04679761,145.376597 9.45380017,144.76857 11.7838599,144.178714 L11.8114432,144.178714 C14.5465414,143.489617 17.3063194,142.874601 19.6784799,142.351837 C23.6228864,141.485224 27.5353544,140.905152 30.3459436,140.526358 L30.070111,140.561302 C37.5132365,139.511581 44.1637062,139.001398 50.39462,139 C56.7678053,139 63.5242528,139.492013 71.6584116,140.545927 C77.3202391,141.279752 82.8368915,142.163139 88.953117,143.156949 C95.1956447,144.173123 100.390009,145.059305 105.327412,145.952476 C111.417506,147.046925 117.376943,148.146965 123.375576,149.564297 C125.482616,150.076032 127.560069,150.694708 129.599231,151.417732 C131.376174,152.032748 133.709137,152.872804 136,153.91274 C134.533732,154.000799 132.936806,154.041334 131.116311,154.041334 C129.904099,154.041334 128.613493,154.024561 127.051409,153.986821 C125.682408,153.953275 124.293083,153.886182 122.950213,153.820487 L122.912468,153.820487 C121.460717,153.749201 119.971221,153.680711 118.507857,153.645767 C117.927156,153.634585 117.346456,153.61222 116.775918,153.589856 L116.713493,153.589856 C115.89035,153.559105 115.039624,153.525559 114.203416,153.525559 L113.354142,153.525559 C111.841418,153.525559 110.305465,153.514377 108.776772,153.494808 L108.419641,153.494808 C107.574722,153.494808 106.712383,153.533946 105.879078,153.571685 L105.854398,153.571685 C105.352092,153.595447 104.848335,153.617812 104.347481,153.633187 C103.10333,153.669529 101.981127,153.705871 100.832792,153.784145 C100.15918,153.830272 99.4841161,153.868011 98.8090521,153.907149 C97.5024765,153.98123 96.0187874,154.065096 94.612041,154.213259 C92.7320239,154.410343 90.5006832,154.642372 88.2040137,154.870208 L87.6494449,154.94988 L87.6175064,154.94988 C82.7381725,155.648762 77.6904355,156.38119 72.7385141,157.17512 C70.2792485,157.567891 67.5557643,157.93131 64.4127242,158.284944 C57.31076,159.23123 51.5313407,159.753994 46.2208369,159.934305 C44.9374893,159.977636 43.6730145,160 42.4637062,160 L42.4796755,159.98742 Z" id="Shape"></path>
                </g>
                <text id="oida" font-family="AvenirNext-Bold, Avenir Next" font-size="100" font-weight="bold" letter-spacing="-5" fill="#FFFFFF">
                    <tspan x="0" y="270">oida</tspan>
                </text>
            </g>
        </g>
    </g>
</svg>